<svg xmlns="http://www.w3.org/2000/svg" xmlns:xlink="http://www.w3.org/1999/xlink" width="480" zoomAndPan="magnify" viewBox="0 0 360 359.999987" height="480" preserveAspectRatio="xMidYMid meet" version="1.0"><defs><clipPath id="9219bf281a"><path d="M 10.414062 14.152344 L 349.414062 14.152344 L 349.414062 353.152344 L 10.414062 353.152344 Z M 10.414062 14.152344 " clip-rule="nonzero"/></clipPath><clipPath id="32729d774d"><path d="M 56.078125 59.816406 L 303.578125 59.816406 L 303.578125 307.316406 L 56.078125 307.316406 Z M 56.078125 59.816406 " clip-rule="nonzero"/></clipPath></defs><g clip-path="url(#9219bf281a)"><path fill="#0e0e0e" d="M 349.578125 182.378906 C 286.652344 180.230469 246.5625 178.28125 222.425781 166.160156 C 230.921875 140.515625 257.890625 110.792969 300.867188 64.78125 L 298.949219 62.863281 C 252.9375 105.839844 223.210938 132.808594 197.570312 141.300781 C 185.445312 117.164062 183.5 77.078125 181.351562 14.152344 L 178.640625 14.152344 C 176.492188 77.078125 174.542969 117.164062 162.421875 141.300781 C 136.78125 132.808594 107.054688 105.839844 61.042969 62.863281 L 59.125 64.78125 C 102.101562 110.792969 129.070312 140.519531 137.566406 166.160156 C 113.425781 178.28125 73.339844 180.230469 10.414062 182.378906 L 10.414062 185.089844 C 73.339844 187.238281 113.425781 189.183594 137.566406 201.308594 C 129.070312 226.949219 102.101562 256.675781 59.125 302.6875 L 61.042969 304.605469 C 107.054688 261.628906 136.78125 234.660156 162.421875 226.164062 C 174.542969 250.300781 176.492188 290.390625 178.640625 353.316406 L 181.351562 353.316406 C 183.5 290.390625 185.445312 250.300781 197.570312 226.164062 C 223.210938 234.660156 252.9375 261.628906 298.949219 304.605469 L 300.867188 302.6875 C 257.890625 256.675781 230.921875 226.949219 222.425781 201.308594 C 246.5625 189.183594 286.652344 187.238281 349.578125 185.089844 Z M 349.578125 182.378906 " fill-opacity="1" fill-rule="nonzero"/></g><g clip-path="url(#32729d774d)"><path fill="#ffafec" d="M 303.917969 182.746094 C 257.9375 181.175781 228.640625 179.753906 211.003906 170.894531 C 217.210938 152.15625 236.917969 130.433594 268.324219 96.8125 L 266.921875 95.410156 C 233.296875 126.816406 211.578125 146.523438 192.839844 152.730469 C 183.980469 135.09375 182.558594 105.796875 180.988281 59.816406 L 179.007812 59.816406 C 177.4375 105.796875 176.015625 135.09375 167.15625 152.730469 C 148.417969 146.523438 126.699219 126.816406 93.074219 95.410156 L 91.671875 96.8125 C 123.078125 130.4375 142.785156 152.15625 148.992188 170.894531 C 131.355469 179.753906 102.058594 181.175781 56.078125 182.746094 L 56.078125 184.726562 C 102.058594 186.296875 131.355469 187.71875 148.992188 196.578125 C 142.785156 215.316406 123.078125 237.035156 91.671875 270.660156 L 93.074219 272.0625 C 126.699219 240.65625 148.417969 220.949219 167.15625 214.742188 C 176.015625 232.378906 177.4375 261.675781 179.007812 307.65625 L 180.988281 307.65625 C 182.558594 261.675781 183.980469 232.378906 192.839844 214.742188 C 211.578125 220.949219 233.296875 240.65625 266.921875 272.0625 L 268.324219 270.660156 C 236.917969 237.035156 217.210938 215.316406 211.003906 196.578125 C 228.640625 187.71875 257.9375 186.296875 303.917969 184.726562 Z M 303.917969 182.746094 " fill-opacity="1" fill-rule="nonzero"/></g></svg>