<svg xmlns="http://www.w3.org/2000/svg" xmlns:xlink="http://www.w3.org/1999/xlink" width="480" zoomAndPan="magnify" viewBox="0 0 360 359.999987" height="480" preserveAspectRatio="xMidYMid meet" version="1.0"><path fill="#000000" d="M 227.265625 185.988281 C 244.75 185.609375 266.121094 184.097656 292.160156 182.226562 C 295.207031 182.015625 298.277344 181.890625 301.34375 181.871094 L 359.875 181.578125 L 359.875 178.191406 L 301.34375 177.898438 C 298.277344 177.878906 295.207031 177.773438 292.160156 177.542969 C 266.144531 175.671875 244.769531 174.15625 227.285156 173.78125 C 215.371094 173.527344 209.484375 159.300781 217.722656 150.703125 C 229.828125 138.074219 243.867188 121.890625 260.953125 102.179688 C 262.949219 99.867188 265.050781 97.617188 267.195312 95.433594 L 308.386719 53.820312 L 305.988281 51.425781 L 264.378906 92.617188 C 262.191406 94.78125 259.945312 96.863281 257.632812 98.859375 C 237.898438 115.921875 221.738281 129.984375 209.105469 142.085938 C 200.511719 150.324219 186.285156 144.441406 186.03125 132.527344 C 185.652344 115.039062 184.140625 93.667969 182.269531 67.648438 C 182.058594 64.601562 181.933594 61.535156 181.914062 58.464844 L 181.617188 -0.0625 L 178.234375 -0.0625 L 177.941406 58.464844 C 177.917969 61.535156 177.8125 64.601562 177.582031 67.648438 C 175.710938 93.667969 174.199219 115.039062 173.820312 132.527344 C 173.570312 144.441406 159.339844 150.324219 150.746094 142.085938 C 138.117188 129.984375 121.933594 115.945312 102.222656 98.859375 C 99.910156 96.863281 97.660156 94.761719 95.476562 92.617188 L 53.863281 51.425781 L 51.46875 53.820312 L 92.660156 95.433594 C 94.800781 97.617188 96.902344 99.867188 98.898438 102.179688 C 115.964844 121.914062 130.023438 138.074219 142.128906 150.703125 C 150.367188 159.300781 144.484375 173.527344 132.566406 173.78125 C 115.082031 174.15625 93.710938 175.671875 67.671875 177.542969 C 64.625 177.75 61.554688 177.878906 58.488281 177.898438 L -0.0429688 178.191406 L -0.0429688 181.578125 L 58.488281 181.871094 C 61.554688 181.890625 64.625 181.996094 67.671875 182.226562 C 93.6875 184.097656 115.0625 185.609375 132.546875 185.988281 C 144.460938 186.242188 150.347656 200.46875 142.109375 209.066406 C 130.003906 221.695312 115.964844 237.878906 98.878906 257.589844 C 96.882812 259.902344 94.78125 262.152344 92.636719 264.335938 L 51.445312 305.949219 L 53.84375 308.34375 L 95.453125 267.152344 C 97.640625 264.988281 99.886719 262.90625 102.199219 260.910156 C 121.914062 243.847656 138.09375 229.785156 150.726562 217.703125 C 159.320312 209.464844 173.546875 215.347656 173.800781 227.265625 C 174.179688 244.75 175.691406 266.121094 177.5625 292.140625 C 177.773438 295.1875 177.898438 298.253906 177.917969 301.324219 L 178.214844 359.851562 L 181.597656 359.851562 L 181.890625 301.324219 C 181.914062 298.253906 182.015625 295.1875 182.25 292.140625 C 184.121094 266.121094 185.632812 244.75 186.011719 227.265625 C 186.261719 215.347656 200.492188 209.464844 209.085938 217.703125 C 221.714844 229.808594 237.898438 243.847656 257.609375 260.933594 C 259.921875 262.929688 262.171875 265.007812 264.355469 267.171875 L 305.96875 308.363281 L 308.363281 305.96875 L 267.171875 264.355469 C 265.007812 262.171875 262.929688 259.921875 260.933594 257.609375 C 243.867188 237.878906 229.808594 221.714844 217.722656 209.085938 C 209.441406 200.46875 215.347656 186.242188 227.265625 185.988281 Z M 227.265625 185.988281 " fill-opacity="1" fill-rule="nonzero"/></svg>