<svg xmlns="http://www.w3.org/2000/svg" xmlns:xlink="http://www.w3.org/1999/xlink" width="480" zoomAndPan="magnify" viewBox="0 0 360 359.999987" height="480" preserveAspectRatio="xMidYMid meet" version="1.0"><path fill="#1d1d1b" d="M 180 360.003906 C 178.992188 360.003906 178.164062 359.210938 178.121094 358.203125 L 171.785156 210.652344 L 92.523438 335.269531 C 91.984375 336.117188 90.871094 336.390625 89.996094 335.886719 C 89.125 335.386719 88.804688 334.285156 89.269531 333.390625 L 157.558594 202.441406 L 26.609375 270.730469 C 25.714844 271.195312 24.613281 270.875 24.109375 270 C 23.609375 269.128906 23.882812 268.015625 24.730469 267.476562 L 149.347656 188.214844 L 1.792969 181.878906 C 0.789062 181.835938 -0.00390625 181.007812 -0.00390625 180 C -0.00390625 178.992188 0.789062 178.164062 1.792969 178.121094 L 149.347656 171.785156 L 24.730469 92.523438 C 23.882812 91.984375 23.609375 90.871094 24.113281 90 C 24.613281 89.125 25.714844 88.804688 26.609375 89.269531 L 157.5625 157.5625 L 89.269531 26.609375 C 88.804688 25.714844 89.125 24.613281 90 24.109375 C 90.871094 23.609375 91.984375 23.878906 92.523438 24.730469 L 171.785156 149.347656 L 178.121094 1.792969 C 178.164062 0.789062 178.992188 -0.00390625 180 -0.00390625 C 181.007812 -0.00390625 181.835938 0.789062 181.878906 1.792969 L 188.214844 149.347656 L 267.476562 24.730469 C 268.015625 23.882812 269.128906 23.609375 270.003906 24.113281 C 270.875 24.613281 271.195312 25.714844 270.730469 26.609375 L 202.441406 157.558594 L 333.390625 89.269531 C 334.285156 88.804688 335.386719 89.125 335.890625 90 C 336.390625 90.871094 336.117188 91.984375 335.269531 92.523438 L 210.652344 171.785156 L 358.203125 178.121094 C 359.210938 178.164062 360.003906 178.992188 360.003906 180 C 360.003906 181.007812 359.210938 181.835938 358.203125 181.878906 L 210.652344 188.214844 L 335.269531 267.476562 C 336.117188 268.015625 336.390625 269.128906 335.886719 270.003906 C 335.382812 270.875 334.28125 271.195312 333.390625 270.730469 L 202.441406 202.441406 L 270.730469 333.390625 C 271.195312 334.285156 270.875 335.386719 270 335.886719 C 269.128906 336.390625 268.015625 336.117188 267.476562 335.269531 L 188.214844 210.652344 L 181.878906 358.203125 C 181.835938 359.210938 181.007812 360.003906 180 360.003906 Z M 173.410156 202.71875 C 173.570312 202.71875 173.734375 202.738281 173.894531 202.78125 C 174.6875 202.996094 175.253906 203.699219 175.289062 204.519531 L 180 314.285156 L 184.710938 204.519531 C 184.746094 203.699219 185.3125 202.996094 186.105469 202.78125 C 186.898438 202.570312 187.738281 202.898438 188.175781 203.589844 L 247.140625 296.292969 L 196.339844 198.878906 C 195.960938 198.148438 196.097656 197.257812 196.679688 196.679688 C 197.257812 196.097656 198.148438 195.960938 198.878906 196.339844 L 296.292969 247.140625 L 203.589844 188.179688 C 202.898438 187.738281 202.570312 186.898438 202.78125 186.105469 C 202.996094 185.3125 203.699219 184.746094 204.519531 184.710938 L 314.285156 180 L 204.519531 175.289062 C 203.699219 175.253906 202.996094 174.6875 202.78125 173.894531 C 202.570312 173.101562 202.898438 172.261719 203.589844 171.820312 L 296.292969 112.859375 L 198.878906 163.660156 C 198.148438 164.039062 197.257812 163.902344 196.679688 163.324219 C 196.097656 162.742188 195.960938 161.851562 196.339844 161.125 L 247.144531 63.707031 L 188.179688 156.410156 C 187.738281 157.101562 186.898438 157.429688 186.105469 157.21875 C 185.3125 157.003906 184.746094 156.300781 184.710938 155.480469 L 180 45.714844 L 175.289062 155.480469 C 175.253906 156.300781 174.6875 157.003906 173.894531 157.21875 C 173.101562 157.429688 172.261719 157.101562 171.820312 156.410156 L 112.859375 63.707031 L 163.660156 161.121094 C 164.039062 161.851562 163.902344 162.742188 163.320312 163.320312 C 162.742188 163.902344 161.851562 164.039062 161.121094 163.660156 L 63.707031 112.859375 L 156.410156 171.820312 C 157.101562 172.261719 157.429688 173.101562 157.21875 173.894531 C 157.003906 174.6875 156.300781 175.253906 155.480469 175.289062 L 45.714844 180 L 155.480469 184.710938 C 156.300781 184.746094 157.003906 185.3125 157.21875 186.105469 C 157.429688 186.898438 157.101562 187.738281 156.410156 188.179688 L 63.707031 247.140625 L 161.121094 196.339844 C 161.851562 195.960938 162.742188 196.097656 163.320312 196.679688 C 163.902344 197.257812 164.039062 198.148438 163.660156 198.878906 L 112.855469 296.292969 L 171.820312 203.589844 C 172.171875 203.039062 172.777344 202.71875 173.410156 202.71875 Z M 173.410156 202.71875 " fill-opacity="1" fill-rule="nonzero"/></svg>